<svg xmlns="http://www.w3.org/2000/svg" width="89" height="28" viewBox="0 0 89 28">
    <defs>
        <linearGradient id="prefix__a" x1="0%" x2="98.078%" y1="46.989%" y2="53.011%">
            <stop offset="0%" stop-color="#FF821D"/>
            <stop offset="100%" stop-color="#FF5B18"/>
        </linearGradient>
    </defs>
    <g fill="none" fill-rule="evenodd">
        <path d="M0 0H88.667V28H0z"/>
        <path fill="url(#prefix__a)" d="M8.377 22.562c2.56 0 4.798-.746 6.513-1.74l2.486-8.775h-7.98l-.92 3.53h3.356l-.696 2.337c-.596.273-1.342.472-2.311.472-2.138 0-3.903-1.268-3.903-3.704 0-3.206 2.411-5.916 5.916-5.916 1.864 0 3.281.77 4.3 1.79l3.232-3.132c-1.193-1.541-3.729-2.958-7.209-2.958C4.524 4.466 0 9.338 0 14.88c0 5.344 4.226 7.681 8.377 7.681zM24.808 7.548l.945-3.48H20.83l-.945 3.48h4.922zm-4.052 14.666l3.605-13.448h-4.723l-3.605 13.448h4.723zM33.981 7.498l4.499-3.157-4.3-1.417-3.829 4.574h3.63zm41.297-1.462l4.5-3.157-4.301-1.417-3.828 4.574h3.63zM26.474 22.488c1.566 0 2.734-.647 3.877-1.716l-.373 1.442h4.649l1.989-7.408c.174-.67.273-1.317.273-1.938 0-2.685-1.964-4.276-5.99-4.276-1.94 0-3.879.323-5.295.82l.67 3.43c.945-.372 2.362-.67 3.63-.67 1.64 0 2.312.571 2.312 1.441 0 .323-.075.597-.125.82l-.05.175c-1.068-.324-2.187-.522-3.405-.522-3.555 0-5.916 1.79-5.916 4.747 0 2.238 1.541 3.655 3.754 3.655zm2.187-2.909c-.795 0-1.342-.472-1.342-1.243 0-1.218.97-1.939 2.46-1.939.647 0 1.244.125 1.766.299l-.125.447c-.373 1.367-1.541 2.436-2.759 2.436zm20.781 2.933c4.325 0 7.408-2.436 7.408-6.015 0-2.61-1.84-3.828-4.524-4.847-2.387-.945-2.909-1.194-2.909-1.89s.721-1.243 1.89-1.243c1.764 0 3.28.771 4.598 1.914l2.983-3.33c-1.665-1.591-4.077-2.586-7.134-2.586-4.25 0-7.383 2.461-7.383 5.916 0 2.56 1.765 3.754 4.524 4.798 2.436.945 2.909 1.293 2.909 1.964 0 .795-.82 1.292-1.964 1.292-1.914 0-3.68-.795-5.37-2.361l-3.107 3.207c1.865 2.013 4.674 3.181 8.08 3.181zM64.755 7.498l2.485-1.516 1.69 1.516h2.81L69.65 3.422h-3.828l-4.275 4.076h3.207zm-.697 15.04c4.525 0 7.93-3.754 7.93-7.831 0-3.53-2.486-6.24-6.612-6.24-4.5 0-7.905 3.754-7.905 7.806 0 3.555 2.486 6.264 6.587 6.264zm.274-3.928c-1.392 0-2.337-.97-2.337-2.51 0-1.741 1.268-3.705 3.132-3.705 1.392 0 2.337.97 2.337 2.486 0 1.765-1.268 3.729-3.132 3.729zm14.144 3.927c2.685 0 4.375-1.044 5.742-2.635l-2.883-2.51c-.82.82-1.542 1.243-2.536 1.243-1.168 0-2.063-.87-2.063-2.238 0-2.038 1.442-4.002 3.231-4.002 1.219 0 1.865.647 2.312 1.69l3.704-1.913c-.72-2.064-2.585-3.68-5.717-3.68-4.475 0-8.079 3.63-8.079 8.154 0 3.63 2.66 5.891 6.289 5.891z"/>
    </g>
</svg>
