
<svg xmlns="http://www.w3.org/2000/svg" xmlns:xlink="http://www.w3.org/1999/xlink" width="24" height="24" viewBox="0 0 24 24">
    <defs>
        <path id="yqtrzm486a" d="M6.5 18c.828 0 1.5.672 1.5 1.5S7.328 21 6.5 21 5 20.328 5 19.5 5.672 18 6.5 18zm12 0c.828 0 1.5.672 1.5 1.5s-.672 1.5-1.5 1.5-1.5-.672-1.5-1.5.672-1.5 1.5-1.5zM3.857.2c.401 0 .74.297.793.694l.542 4.068H21c.505 0 .883.462.784.957l-1.904 9.524c-.075.374-.403.643-.785.643H5.762c-.401 0-.74-.297-.793-.695L3.157 1.8H1C.558 1.8.2 1.442.2 1 .2.558.558.2 1 .2zm16.167 6.362H5.406l1.056 7.924H18.44l1.585-7.924z"/>
    </defs>
    <g fill="none" fill-rule="evenodd">
        <g transform="translate(1 1)">
            <use fill="#0d5cb6" xlink:href="#yqtrzm486a"/>
        </g>
    </g>
</svg>
