
<svg xmlns="http://www.w3.org/2000/svg" width="12" height="16" viewBox="0 0 12 16">
    <g fill="none" fill-rule="evenodd">
        <g fill-rule="nonzero">
            <g>
                <g>
                    <g>
                        <g>
                            <path fill="#FFB124" d="M10.735 5.617H6.207L7.613.357c.078-.291-.299-.485-.497-.256L.088 8.209c-.16.184-.027.468.219.468h4.528l-1.406 5.26c-.078.291.298.485.497.256l7.028-8.108c.16-.184.027-.468-.22-.468z" transform="translate(-918 -1074) translate(80 883) translate(782 184) translate(8 7) translate(48.169)"/>
                            <path fill="#FDD835" d="M6.207 5.617h-.555c-.191 0-.33-.179-.282-.361L6.584.714l.532-.613c.198-.23.575-.035.497.257L6.207 5.617zM10.954 6.085l-7.028 8.108c-.199.23-.576.035-.497-.257l.095-.356 6.496-7.495c.16-.184.027-.468-.218-.468h.933c.246 0 .378.284.219.468z" transform="translate(-918 -1074) translate(80 883) translate(782 184) translate(8 7) translate(48.169)"/>
                        </g>
                    </g>
                </g>
            </g>
        </g>
    </g>
</svg>
