<svg width="32" height="33" viewBox="0 0 32 33" fill="none" xmlns="http://www.w3.org/2000/svg"><rect opacity="0.01" y="5.6665" width="32" height="21.3333" fill="white"></rect><path d="M29.5619 22.6087C29.5619 24.9501 27.6552 26.8567 25.3138 26.8567H2.2002V10.0317C2.2002 7.6902 4.10682 5.78358 6.44828 5.78358H29.5619V22.6087Z" fill="white"></path><path d="M22.0356 18.2937H23.7917C23.8419 18.2937 23.959 18.277 24.0092 18.277C24.3437 18.2101 24.628 17.909 24.628 17.4909C24.628 17.0895 24.3437 16.7885 24.0092 16.7048C23.959 16.6881 23.8586 16.6881 23.7917 16.6881H22.0356V18.2937Z" fill="url(#paint0_linear)"></path><path d="M23.5909 7.20518C21.9184 7.20518 20.547 8.55988 20.547 10.2491V13.4101H24.8453C24.9456 13.4101 25.0627 13.4101 25.1463 13.4268C26.1163 13.477 26.8355 13.9787 26.8355 14.8484C26.8355 15.5341 26.3505 16.1195 25.4473 16.2365V16.27C26.4341 16.3369 27.1867 16.8888 27.1867 17.7418C27.1867 18.6616 26.3505 19.2637 25.2467 19.2637H20.5303V25.4519H24.9958C26.6683 25.4519 28.0397 24.0972 28.0397 22.408V7.20518H23.5909Z" fill="url(#paint1_linear)"></path><path d="M24.4106 15.0491C24.4106 14.6477 24.1262 14.3801 23.7917 14.3299C23.7583 14.3299 23.6747 14.3132 23.6245 14.3132H22.0356V15.785H23.6245C23.6747 15.785 23.775 15.785 23.7917 15.7682C24.1262 15.7181 24.4106 15.4505 24.4106 15.0491Z" fill="url(#paint2_linear)"></path><path d="M6.76619 7.20518C5.09372 7.20518 3.72229 8.55988 3.72229 10.2491V17.7585C4.57525 18.1766 5.46166 18.4442 6.34808 18.4442C7.40173 18.4442 7.97038 17.8087 7.97038 16.939V13.3933H10.5794V16.9223C10.5794 18.2937 9.72647 19.4142 6.83309 19.4142C5.077 19.4142 3.70557 19.0296 3.70557 19.0296V25.4351H8.17107C9.84355 25.4351 11.215 24.0804 11.215 22.3912V7.20518H6.76619Z" fill="url(#paint3_linear)"></path><path d="M15.1787 7.20518C13.5062 7.20518 12.1348 8.55988 12.1348 10.2491V14.2296C12.9041 13.5773 14.2421 13.1592 16.3996 13.2595C17.5536 13.3097 18.7912 13.6275 18.7912 13.6275V14.9153C18.1724 14.5975 17.4365 14.3132 16.4832 14.2463C14.8442 14.1292 13.8574 14.932 13.8574 16.3369C13.8574 17.7585 14.8442 18.5613 16.4832 18.4275C17.4365 18.3606 18.1724 18.0595 18.7912 17.7585V19.0463C18.7912 19.0463 17.5703 19.3641 16.3996 19.4142C14.2421 19.5146 12.9041 19.0965 12.1348 18.4442V25.4686H16.6003C18.2727 25.4686 19.6442 24.1139 19.6442 22.4247V7.20518H15.1787Z" fill="url(#paint4_linear)"></path><defs><linearGradient id="paint0_linear" x1="20.5439" y1="19.8203" x2="28.0604" y2="19.8203" gradientUnits="userSpaceOnUse"><stop stop-color="#007940"></stop><stop offset="0.2285" stop-color="#00873F"></stop><stop offset="0.7433" stop-color="#40A737"></stop><stop offset="1" stop-color="#5CB531"></stop></linearGradient><linearGradient id="paint1_linear" x1="20.544" y1="25.4526" x2="28.0602" y2="25.4526" gradientUnits="userSpaceOnUse"><stop stop-color="#007940"></stop><stop offset="0.2285" stop-color="#00873F"></stop><stop offset="0.7433" stop-color="#40A737"></stop><stop offset="1" stop-color="#5CB531"></stop></linearGradient><linearGradient id="paint2_linear" x1="20.5438" y1="17.3754" x2="28.0598" y2="17.3754" gradientUnits="userSpaceOnUse"><stop stop-color="#007940"></stop><stop offset="0.2285" stop-color="#00873F"></stop><stop offset="0.7433" stop-color="#40A737"></stop><stop offset="1" stop-color="#5CB531"></stop></linearGradient><linearGradient id="paint3_linear" x1="3.71849" y1="25.5849" x2="11.3507" y2="25.5849" gradientUnits="userSpaceOnUse"><stop stop-color="#1F286F"></stop><stop offset="0.4751" stop-color="#004E94"></stop><stop offset="0.8261" stop-color="#0066B1"></stop><stop offset="1" stop-color="#006FBC"></stop></linearGradient><linearGradient id="paint4_linear" x1="12.0913" y1="25.3346" x2="19.5036" y2="25.3346" gradientUnits="userSpaceOnUse"><stop stop-color="#6C2C2F"></stop><stop offset="0.1735" stop-color="#882730"></stop><stop offset="0.5731" stop-color="#BE1833"></stop><stop offset="0.8585" stop-color="#DC0436"></stop><stop offset="1" stop-color="#E60039"></stop></linearGradient></defs></svg>