<svg width="32" height="33" viewBox="0 0 32 33" fill="none" xmlns="http://www.w3.org/2000/svg"><mask id="mask0" style="mask-type:alpha" maskUnits="userSpaceOnUse" x="3" y="3" width="26" height="27"><path d="M10.6917 3.6665L21.3083 3.6665C23.9829 3.6665 24.9528 3.94498 25.9305 4.4679C26.9083 4.99082 27.6757 5.75819 28.1986 6.73597C28.7215 7.71374 29 8.6836 29 11.3582V21.9748C29 24.6494 28.7215 25.6193 28.1986 26.597C27.6757 27.5748 26.9083 28.3422 25.9305 28.8651C24.9528 29.388 23.9829 29.6665 21.3083 29.6665H10.6917C8.0171 29.6665 7.04724 29.388 6.06946 28.8651C5.09169 28.3422 4.32432 27.5748 3.8014 26.597C3.27848 25.6193 3 24.6494 3 21.9748L3 11.3582C3 8.6836 3.27848 7.71374 3.8014 6.73597C4.32432 5.75819 5.09169 4.99082 6.06946 4.4679C7.04724 3.94498 8.0171 3.6665 10.6917 3.6665Z" fill="white"></path></mask><g mask="url(#mask0)"><path d="M10.6917 3.6665L21.3083 3.6665C23.9829 3.6665 24.9528 3.94498 25.9305 4.4679C26.9083 4.99082 27.6757 5.75819 28.1986 6.73597C28.7215 7.71374 29 8.6836 29 11.3582V21.9748C29 24.6494 28.7215 25.6193 28.1986 26.597C27.6757 27.5748 26.9083 28.3422 25.9305 28.8651C24.9528 29.388 23.9829 29.6665 21.3083 29.6665H10.6917C8.0171 29.6665 7.04724 29.388 6.06946 28.8651C5.09169 28.3422 4.32432 27.5748 3.8014 26.597C3.27848 25.6193 3 24.6494 3 21.9748L3 11.3582C3 8.6836 3.27848 7.71374 3.8014 6.73597C4.32432 5.75819 5.09169 4.99082 6.06946 4.4679C7.04724 3.94498 8.0171 3.6665 10.6917 3.6665Z" fill="#A50064"></path><path d="M21.1624 8.6665C19.0427 8.6665 17.3247 10.2823 17.3247 12.2755C17.3247 14.269 19.0427 15.8849 21.1624 15.8849C23.2819 15.8849 25 14.269 25 12.2755C25 10.2823 23.2819 8.6665 21.1624 8.6665ZM21.1624 13.8159C20.2632 13.8159 19.5325 13.1289 19.5325 12.2833C19.5325 11.4376 20.2632 10.7505 21.1624 10.7505C22.0615 10.7505 22.7922 11.4376 22.7922 12.2833C22.7922 13.1289 22.0615 13.8161 21.1624 13.8161V13.8159ZM16.2168 15.8927H14.0089V11.3546C14.0089 11.0148 13.7198 10.7433 13.3587 10.7433C12.9974 10.7433 12.7083 11.0148 12.7083 11.3546V15.8927H10.5006V11.3546C10.5006 11.0148 10.2117 10.7433 9.85038 10.7433C9.48906 10.7433 9.19994 11.0148 9.19994 11.3546V15.8927H7V11.3772C7 9.8822 8.29262 8.6665 9.88225 8.6665C10.5325 8.6665 11.1267 8.87041 11.6084 9.21008C12.1645 8.84769 12.7399 8.6665 13.3345 8.6665C14.9241 8.6665 16.2168 9.8822 16.2168 11.3772V15.8927ZM21.1624 17.4481C19.0427 17.4481 17.3247 19.0638 17.3247 21.0571C17.3247 23.0506 19.0427 24.6665 21.1624 24.6665C23.2819 24.6663 25 23.0504 25 21.0571C25 19.0638 23.2819 17.4479 21.1624 17.4479V17.4481ZM13.3345 17.4397C14.9241 17.4397 16.2168 18.6554 16.2168 20.1504V24.6659H14.0089V20.1279C14.0089 19.788 13.7198 19.5165 13.3587 19.5165C12.9974 19.5165 12.7083 19.788 12.7083 20.1279V24.6659H10.5006V20.1279C10.5006 19.788 10.2117 19.5165 9.85038 19.5165C9.48906 19.5165 9.19994 19.788 9.19994 20.1279V24.6659H7V20.1504C7 18.6554 8.29262 17.4397 9.88225 17.4397C10.5325 17.4397 11.1267 17.6437 11.6084 17.9833C12.1645 17.6209 12.7399 17.4397 13.3345 17.4397ZM21.1624 19.532C22.0615 19.532 22.7922 20.2191 22.7922 21.0649C22.7922 21.9104 22.0615 22.5975 21.1624 22.5975C20.2632 22.5975 19.5325 21.9104 19.5325 21.0649C19.5325 20.2191 20.2632 19.532 21.1624 19.532Z" fill="white"></path></g></svg>