<svg width="32" height="32" viewBox="0 0 32 32" fill="none" xmlns="http://www.w3.org/2000/svg"><path fill-rule="evenodd" clip-rule="evenodd" d="M5.5 10.5C5.5 4.70101 10.201 0 16 0C21.799 0 26.5 4.70101 26.5 10.5C26.5 16.299 21.799 21 16 21C10.201 21 5.5 16.299 5.5 10.5ZM16 1C10.7533 1 6.5 5.25329 6.5 10.5C6.5 15.7467 10.7533 20 16 20C21.2467 20 25.5 15.7467 25.5 10.5C25.5 5.25329 21.2467 1 16 1Z" fill="#052E5C"></path><path fill-rule="evenodd" clip-rule="evenodd" d="M22.4646 7.70199C22.6599 7.89725 22.6599 8.21383 22.4646 8.4091L17.5757 13.298C17.3805 13.4932 17.0639 13.4932 16.8686 13.298C16.6734 13.1027 16.6734 12.7861 16.8686 12.5909L21.7575 7.70199C21.9528 7.50673 22.2693 7.50673 22.4646 7.70199Z" fill="#0B74E5"></path><path d="M18.5555 8.05547C18.5555 8.45435 18.2322 8.7777 17.8333 8.7777C17.4344 8.7777 17.1111 8.45435 17.1111 8.05547C17.1111 7.6566 17.4344 7.33325 17.8333 7.33325C18.2322 7.33325 18.5555 7.6566 18.5555 8.05547Z" fill="#0B74E5" stroke="#0B74E5"></path><path d="M22.2223 12.9445C22.2223 13.3434 21.8989 13.6667 21.5001 13.6667C21.1012 13.6667 20.7778 13.3434 20.7778 12.9445C20.7778 12.5456 21.1012 12.2223 21.5001 12.2223C21.8989 12.2223 22.2223 12.5456 22.2223 12.9445Z" fill="#0B74E5" stroke="#0B74E5"></path><path fill-rule="evenodd" clip-rule="evenodd" d="M10.8541 8.29176C10.5279 8.90744 10.3889 9.73418 10.3889 10.4999C10.3889 11.2656 10.528 12.0924 10.8543 12.7081C11.1684 13.3007 11.6306 13.6666 12.3334 13.6666C13.0361 13.6666 13.4984 13.3007 13.8125 12.7081C14.1387 12.0924 14.2778 11.2656 14.2778 10.4999C14.2778 9.73418 14.1389 8.90744 13.8126 8.29176C13.4986 7.69915 13.0364 7.33325 12.3334 7.33325C11.6303 7.33325 11.1681 7.69915 10.8541 8.29176ZM9.97048 7.82355C10.4128 6.98878 11.1728 6.33325 12.3334 6.33325C13.4939 6.33325 14.2539 6.98878 14.6962 7.82355C15.1263 8.63525 15.2778 9.64185 15.2778 10.4999C15.2778 11.358 15.1262 12.3646 14.696 13.1763C14.2537 14.011 13.4937 14.6666 12.3334 14.6666C11.173 14.6666 10.413 14.011 9.97068 13.1763C9.54052 12.3646 9.38892 11.358 9.38892 10.4999C9.38892 9.64185 9.54038 8.63525 9.97048 7.82355Z" fill="#0B74E5"></path><path d="M4.39832 26.1434H2.66946V30.9236H1.71363V26.1434H0V25.3645H4.39832V26.1434Z" fill="#052E5C"></path><path d="M7.16679 28.7817H6.09291V30.9236H5.12947V25.3645H7.0792C7.71896 25.3645 8.21274 25.5083 8.56054 25.796C8.90835 26.0836 9.08225 26.4998 9.08225 27.0445C9.08225 27.4161 8.99212 27.7279 8.81187 27.9799C8.63416 28.2294 8.38537 28.4215 8.06549 28.5564L9.31073 30.874V30.9236H8.27874L7.16679 28.7817ZM6.09291 28.0066H7.08301C7.40797 28.0066 7.66184 27.9252 7.84462 27.7623C8.02741 27.5968 8.11881 27.3716 8.11881 27.0865C8.11881 26.7887 8.03376 26.5583 7.86367 26.3954C7.69611 26.2325 7.44478 26.1485 7.10967 26.1434H6.09291V28.0066Z" fill="#052E5C"></path><path d="M13.0998 29.6293H10.952L10.5027 30.9236H9.50113L11.5956 25.3645H12.46L14.5583 30.9236H13.5529L13.0998 29.6293ZM11.2224 28.8504H12.8294L12.0259 26.5443L11.2224 28.8504ZM11.7098 24.9293L11.6832 24.3718C11.8685 24.3591 12.0018 24.3349 12.083 24.2993C12.1668 24.2636 12.2087 24.2013 12.2087 24.1122C12.2087 23.9289 12.0183 23.8373 11.6375 23.8373L11.6641 23.3677C12.0932 23.3677 12.4156 23.4339 12.6314 23.5662C12.8497 23.6986 12.9589 23.8768 12.9589 24.1007C12.9589 24.2535 12.9094 24.3795 12.8103 24.4787C12.7113 24.578 12.5704 24.6404 12.3877 24.6658V24.9293H11.7098Z" fill="#052E5C"></path><path d="M21.3823 30.202C21.1818 30.4642 20.9038 30.6627 20.5483 30.7976C20.1929 30.9325 19.7893 31 19.3374 31C18.8728 31 18.4615 30.8944 18.1036 30.6831C17.7456 30.4718 17.4689 30.1702 17.2734 29.7782C17.0805 29.3837 16.9802 28.9242 16.9726 28.3999V27.9646C16.9726 27.1247 17.1731 26.4692 17.5742 25.9983C17.9754 25.5249 18.5351 25.2882 19.2536 25.2882C19.8705 25.2882 20.3605 25.4409 20.7235 25.7463C21.0866 26.0518 21.3049 26.4921 21.3785 27.0674H20.4341C20.3275 26.398 19.9403 26.0632 19.2726 26.0632C18.8411 26.0632 18.5123 26.2198 18.2864 26.5329C18.0629 26.8434 17.9474 27.3003 17.9398 27.9035V28.3312C17.9398 28.9319 18.0655 29.399 18.3168 29.7324C18.5707 30.0633 18.9223 30.2287 19.3717 30.2287C19.8642 30.2287 20.2145 30.1168 20.4227 29.8928V28.8046H19.2803V28.0715H21.3823V30.202Z" fill="#052E5C"></path><path d="M26.8659 28.2892C26.8659 28.8339 26.772 29.3124 26.5841 29.7248C26.3963 30.1346 26.1272 30.4502 25.7768 30.6716C25.429 30.8905 25.0279 31 24.5735 31C24.1241 31 23.723 30.8905 23.3701 30.6716C23.0198 30.4502 22.7481 30.1358 22.5552 29.7286C22.3648 29.3213 22.2683 28.8517 22.2658 28.3197V28.0066C22.2658 27.4645 22.361 26.9859 22.5514 26.571C22.7443 26.1561 23.0147 25.8392 23.3625 25.6203C23.7129 25.3989 24.114 25.2882 24.5659 25.2882C25.0178 25.2882 25.4176 25.3976 25.7654 25.6165C26.1157 25.8329 26.3861 26.146 26.5765 26.5558C26.7669 26.963 26.8634 27.4377 26.8659 27.9799V28.2892ZM25.9025 27.999C25.9025 27.383 25.7857 26.9108 25.5522 26.5825C25.3211 26.2541 24.9924 26.09 24.5659 26.09C24.1495 26.09 23.8233 26.2541 23.5872 26.5825C23.3536 26.9083 23.2343 27.3703 23.2292 27.9685V28.2892C23.2292 28.9001 23.3473 29.3722 23.5834 29.7057C23.822 30.0391 24.1521 30.2058 24.5735 30.2058C25 30.2058 25.3275 30.0429 25.556 29.7171C25.787 29.3913 25.9025 28.9153 25.9025 28.2892V27.999ZM24.8477 23.8755H25.9025L24.8477 25.0324H24.1051L24.8477 23.8755Z" fill="#052E5C"></path><path d="M28.789 28.8581V30.9236H27.8256V25.3645H29.9467C30.5661 25.3645 31.0574 25.5262 31.4204 25.8494C31.786 26.1727 31.9688 26.6003 31.9688 27.1323C31.9688 27.677 31.7898 28.1008 31.4318 28.4037C31.0764 28.7066 30.5775 28.8581 29.9352 28.8581H28.789ZM28.789 28.083H29.9467C30.2894 28.083 30.5509 28.0028 30.7311 27.8425C30.9114 27.6796 31.0015 27.4454 31.0015 27.1399C31.0015 26.8396 30.9101 26.6003 30.7273 26.4221C30.5445 26.2414 30.2932 26.1485 29.9733 26.1434H28.789V28.083Z" fill="#052E5C"></path></svg>