<svg width="268" height="256" xmlns="http://www.w3.org/2000/svg" xml:space="preserve" viewBox="0 0 268 256"><title>Layer 1</title><path fill="#085CA8" d="m145.49 47.907-13.99 13.99-.7.69-4.45 4.46-3.32 3.32-4.45 4.45-.69.69-1.94 1.94-.69.7h-.01l-6.56 6.55v.01l-.69.69a28.559 28.559 0 0 1-6.45 4.85c-1.17.64-2.36 1.2-3.59 1.67a28.572 28.572 0 0 1-8.47 1.85c-1.77.12-3.56.07-5.32-.14-3.8-.45-7.54-1.67-10.94-3.64-1.46-.84-2.95-1.72-4.19-2.95-.01 0-.01 0-.02-.01-.27-.26-.54-.53-.82-.82l-25.48-25.48-.54-.54c-.44-.49-.84-1.02-1.18-1.59a9.598 9.598 0 0 1-1.34-4.9c0-.28.01-.56.04-.83.04-.42.1-.82.18-1.2.04-.15.07-.31.11-.45.02-.06.04-.13.05-.19.36-1.2.95-2.33 1.77-3.34.22-.26.44-.52.69-.77l.45-.44 27.15-27.15h.01l16.45-16.45c3.67-3.67 9.51-3.83 13.36-.47l45.57 45.5z" class="st0"></path><path fill="#EB2227" d="M95.93 109.037c-2.19 0-4.35-.49-6.41-1.43l-5.22-5.21-1.28-1.27-.22-.23-2.43-2.43-12.16-12.29c.27.28.54.55.82.82 1.24 1.23 2.74 2.12 4.21 2.96 3.41 1.97 7.14 3.19 10.94 3.64 1.76.22 3.55.26 5.32.14 2.88-.18 5.74-.8 8.47-1.85 1.22-.47 2.42-1.02 3.59-1.67 2.31-1.28 4.48-2.89 6.45-4.85l.69-.69v-.01l6.56-6.55h.01l.69-.7 1.94-1.94.69-.69 4.45-4.45 3.32-3.32 4.45-4.46.7-.69 28.2-28.2 11.63-12.6.07-.07.62-.62c3.55-3.55 9.31-3.55 12.86 0l6.37 6.37h.01l.21.21c-2.82-.14-5.66.88-7.79 2.96l-21.55 21.19-.22.26-37.5 36.9-.05-.05-13.81 13.57-.09.11c-.04.05-.34.38-.83.87-1.09 1.06-3.36 3.06-6.4 4.5-1.38.65-2.78 1.12-4.17 1.41-.82.16-1.67.27-2.49.31h-.65v.05z" class="st2"></path><path fill="#EB2227" d="m225.74 74.147-.69.7-30.54 31-32.07 32.56a28.005 28.005 0 0 1-3.22 2.78c-.04.04-.08.07-.13.11-.15.11-.31.23-.47.34-.02.02-.04.03-.05.05a29.416 29.416 0 0 1-17.16 5.49c-7.9 0-15.07-3.1-20.38-8.14l-.02-.02-.72-.63-5.52-5.52-15.5-15.51-5.17-5.17-.72-.72c.84.14 1.69.2 2.55.2h.03l.69-.01c.99-.04 1.97-.15 2.94-.35 1.59-.33 3.19-.87 4.76-1.61 3.39-1.6 5.91-3.82 7.12-5 .47-.46.82-.85.97-1.02l11.92-11.71.05.05 40.99-40.32.22-.26 19.91-19.59c2.68-2.62 6.87-2.96 9.91-.87l4.72 4.72c.01 0 .01.01.01.01l25.6 25.6c.23.23.44.46.64.71 2.87 3.54 2.65 8.82-.67 12.13z" class="st2"></path><path fill="#099DD9" d="M126.81 40.207c-.72.72-1.91.7-2.64-.03-12.08-12.17-31.81-12.25-43.98-.17-12.16 12.08-12.25 31.81-.16 43.98l9.46 9.54c.06.06.13.14.16.21-.05 0-.09.01-.14.01-1.72.12-3.46.07-5.17-.13l-6.95-7.01c-13.52-13.62-13.44-35.71.18-49.24 13.63-13.52 35.71-13.43 49.24.19l.03.03c.72.73.7 1.9-.03 2.62zM141.27 52.127l-2.63 2.63-4.61-4.64c-.72-.73-.72-1.91.01-2.63s1.9-.72 2.63.01l4.6 4.63z" class="st3"></path><path fill="#099DD9" d="M101.65 90.187c-.03.02-.05.03-.08.05-1.14.62-2.3 1.17-3.5 1.63l-12.88-12.99c-8.06-8.12-9.21-20.85-2.74-30.27a1.86 1.86 0 0 1 2.58-.48c.85.58 1.06 1.74.48 2.59-5.46 7.94-4.48 18.69 2.32 25.54l13.82 13.93zM133.49 59.897l-.06.06-1.94 1.94-.62.62-14.49-14.6c-5.38-5.42-13.23-7.32-20.51-4.96-.97.32-2.02-.22-2.34-1.19-.32-.98.22-2.03 1.2-2.35 8.6-2.79 17.92-.53 24.28 5.88l14.48 14.6z" class="st3"></path><path fill="#099DD9" d="m125.72 67.667-2.63 2.63-14.52-14.64c-3.54-3.58-9.34-3.6-12.91-.05-3.57 3.55-3.6 9.34-.05 12.91l9.36 9.44c.72.72.72 1.9-.01 2.63-.72.72-1.9.72-2.63-.01l-9.37-9.44c-4.98-5.03-4.95-13.17.07-18.16 5.03-4.99 13.18-4.95 18.16.07l14.53 14.62z" class="st3"></path><path fill="#099DD9" d="m117.96 75.437-.06.06-1.94 1.94-.62.62-14.56-14.66c-.72-.72-.72-1.9.01-2.63.73-.72 1.91-.72 2.63.01l14.54 14.66z" class="st3"></path><g fill="#099DD9"><path d="M59.1 245.887c1.39 0 2.42-.24 3.1-.72.68-.48 1.12-1.21 1.33-2.2.13-.62.05-1.15-.21-1.58-.27-.43-.87-.96-1.81-1.58l-3.71-2.56c-.84-.59-1.48-1.19-1.92-1.81-.44-.62-.69-1.26-.77-1.93-.08-.67-.03-1.4.13-2.18.4-1.9 1.34-3.4 2.82-4.5 1.48-1.09 3.59-1.64 6.34-1.64 1.07 0 2.1.13 3.08.39s1.71.55 2.21.87c.21.14.36.27.46.39.09.12.12.28.08.48l-.47 2.19c-.12.53-.42.69-.92.49-.54-.22-1.33-.44-2.38-.65-1.05-.21-2-.32-2.85-.32-2.26 0-3.55.75-3.87 2.26-.12.53-.03.97.24 1.33.28.36.88.85 1.79 1.48l3.39 2.3c.99.67 1.73 1.35 2.23 2.03.49.68.79 1.37.89 2.08.1.71.05 1.52-.13 2.44-.25 1.19-.76 2.29-1.52 3.31s-1.83 1.84-3.2 2.49c-1.38.64-3.06.96-5.04.96-1.33 0-2.51-.15-3.54-.46-1.04-.3-1.74-.58-2.12-.84-.26-.18-.43-.32-.5-.42-.07-.1-.08-.25-.04-.45l.47-2.19c.11-.49.41-.66.92-.49 1.97.7 3.81 1.03 5.52 1.03zM77.47 246.107c1.21 0 2.65-.25 4.32-.74.48-.13.67.05.57.52l-.43 2.07c-.05.2-.14.36-.27.48s-.33.24-.6.36c-1.24.62-2.69.93-4.36.93-1.44 0-2.66-.27-3.65-.81-.99-.54-1.68-1.4-2.06-2.57-.38-1.17-.39-2.66-.01-4.46l.65-3.01c.37-1.76.99-3.23 1.87-4.4.88-1.18 1.93-2.05 3.16-2.6 1.23-.56 2.57-.84 4.01-.84 1.66 0 2.98.31 3.96.93.22.12.37.23.45.35.08.12.1.28.05.48l-.44 2.07c-.11.47-.37.65-.79.52-.66-.23-1.27-.41-1.82-.54-.55-.13-1.23-.2-2.04-.2-2.18 0-3.57 1.41-4.17 4.23l-.65 3.01c-.32 1.53-.25 2.61.21 3.26.49.64 1.16.96 2.04.96zM94.35 234.577c-1.69 0-3.47.28-5.33.84-.48.13-.67-.05-.57-.52l.41-1.97c.04-.2.13-.36.26-.49s.33-.24.61-.35c.72-.28 1.58-.53 2.6-.74 1.02-.21 2.11-.32 3.27-.32 1.39 0 2.53.23 3.42.68.89.45 1.5 1.15 1.83 2.08.33.94.36 2.07.07 3.41l-2.35 11.02c-.04.23-.1.39-.17.49-.07.09-.22.17-.43.22-1.01.26-1.98.46-2.9.6-.93.14-2.04.21-3.35.21-1.77 0-3.17-.18-4.21-.55-1.04-.37-1.75-.95-2.12-1.74-.37-.79-.42-1.84-.14-3.13l.03-.16c.21-.96.52-1.77.93-2.45.41-.67.97-1.24 1.67-1.7.7-.46 1.55-.81 2.56-1.03 1.01-.23 2.23-.34 3.65-.34h2.27l.3-1.42c.21-1.01.13-1.7-.24-2.07-.37-.39-1.06-.57-2.07-.57zm.38 11.66 1.01-4.78h-2.27c-.98 0-1.72.09-2.23.26-.5.17-.87.44-1.1.81-.23.36-.41.87-.54 1.52l-.05.19c-.13.61-.13 1.08 0 1.4.13.32.4.55.84.68.43.13 1.1.2 2 .2.92-.01 1.69-.1 2.34-.28zM116.99 248.797c-.03.17-.13.32-.29.47a.76.76 0 0 1-.5.21h-2.98c-.18 0-.31-.07-.4-.21a.641.641 0 0 1-.09-.47l2.27-10.67c.18-.85.22-1.53.13-2.04-.09-.5-.34-.87-.77-1.1-.42-.23-1.04-.35-1.86-.35-.99 0-2.07.12-3.25.35l-2.94 13.81c-.03.19-.12.35-.28.48-.15.13-.32.2-.51.2h-2.97c-.19 0-.33-.07-.42-.21a.641.641 0 0 1-.09-.47l3.44-16.16c.06-.32.33-.53.79-.65 1.14-.29 2.34-.53 3.61-.7 1.27-.17 2.44-.26 3.5-.26 2.54 0 4.28.56 5.22 1.68.95 1.12 1.16 2.92.65 5.39l-2.26 10.7zM139.2 248.917c-.06.33-.31.52-.73.58-.94.15-1.8.22-2.59.22-1.28 0-2.26-.13-2.94-.39s-1.1-.75-1.29-1.49c-.19-.74-.13-1.82.17-3.25l2.15-10.15-2.57-.46c-.42-.07-.59-.29-.52-.65l.32-1.45a.76.76 0 0 1 .27-.46c.15-.13.32-.19.5-.19h2.68l.57-2.65c.07-.36.34-.57.79-.65l3.11-.52h.14c.34 0 .47.16.39.49l-.71 3.33h3.27c.2 0 .35.06.44.17.09.12.12.27.08.47l-.41 1.91c-.04.18-.14.33-.29.46-.15.13-.32.19-.5.19h-3.27l-2.15 10.15c-.17.8-.21 1.3-.12 1.5s.42.3.99.3h2.07c.45 0 .65.16.58.49l-.43 2.05zM158.08 241.677c-.33 1.54-.92 2.92-1.78 4.15a9.009 9.009 0 0 1-3.24 2.87c-1.3.68-2.78 1.03-4.43 1.03-1.63 0-2.96-.34-3.99-1.03-1.03-.68-1.7-1.64-2.03-2.87-.33-1.23-.33-2.61 0-4.15l.55-2.6c.33-1.54.92-2.92 1.77-4.15a8.877 8.877 0 0 1 3.25-2.87c1.32-.68 2.79-1.03 4.42-1.03 1.65 0 2.98.34 3.99 1.03 1.01.68 1.68 1.64 2.01 2.87.33 1.23.33 2.61.01 4.15l-.53 2.6zm-4.26 0 .55-2.6c.28-1.35.21-2.41-.21-3.2-.43-.78-1.2-1.18-2.33-1.18-1.12 0-2.05.39-2.82 1.18-.76.78-1.29 1.85-1.57 3.2l-.55 2.6c-.28 1.35-.21 2.41.22 3.2.43.78 1.2 1.18 2.3 1.18 1.12 0 2.06-.39 2.83-1.18.77-.79 1.29-1.85 1.58-3.2zM188.08 232.947c-.56 2.66-1.83 4.59-3.8 5.78-1.98 1.19-4.35 1.79-7.12 1.79-.17 0-.54-.01-1.11-.04-.57-.03-.95-.04-1.12-.06-.17-.01-.38-.02-.61-.03l-1.78 8.43c-.04.19-.14.34-.28.47a.75.75 0 0 1-.47.18h-3.24c-.16 0-.29-.06-.4-.19a.5.5 0 0 1-.1-.46l4.72-22.24c.06-.31.2-.53.4-.67.21-.14.49-.24.84-.29 1.83-.28 3.97-.43 6.42-.43 2.78 0 4.9.58 6.37 1.74 1.47 1.16 1.92 3.07 1.35 5.72l-.07.3zm-4.47 0 .06-.28c.28-1.35.1-2.31-.56-2.89-.66-.58-1.82-.87-3.48-.87-1.04 0-2.01.05-2.9.14l-1.64 7.69c1.03.06 1.98.09 2.86.09 1.16 0 2.12-.14 2.88-.42.76-.28 1.37-.7 1.82-1.27.45-.56.78-1.29.96-2.19zM195.12 234.577c-1.69 0-3.47.28-5.33.84-.48.13-.67-.05-.57-.52l.41-1.97c.04-.2.13-.36.26-.49s.33-.24.61-.35c.72-.28 1.58-.53 2.6-.74 1.02-.21 2.11-.32 3.27-.32 1.39 0 2.53.23 3.42.68.89.45 1.5 1.15 1.83 2.08.33.94.36 2.07.07 3.41l-2.35 11.02c-.04.23-.1.39-.17.49-.07.09-.22.17-.43.22-1.01.26-1.98.46-2.9.6-.93.14-2.04.21-3.35.21-1.77 0-3.17-.18-4.21-.55-1.04-.37-1.75-.95-2.12-1.74-.37-.79-.42-1.84-.14-3.13l.03-.16c.21-.96.52-1.77.93-2.45.41-.67.97-1.24 1.67-1.7.7-.46 1.55-.81 2.56-1.03 1.01-.23 2.23-.34 3.65-.34h2.27l.3-1.42c.21-1.01.13-1.7-.24-2.07-.37-.39-1.06-.57-2.07-.57zm.38 11.66 1.01-4.78h-2.27c-.98 0-1.72.09-2.23.26-.5.17-.87.44-1.1.81-.23.36-.41.87-.54 1.52l-.05.19c-.13.61-.13 1.08 0 1.4.13.32.4.55.84.68.43.13 1.1.2 2 .2.92-.01 1.7-.1 2.34-.28zM221.84 231.797a.57.57 0 0 1-.08.19l-9.42 18.88c-.62 1.26-1.24 2.25-1.85 2.97s-1.38 1.25-2.29 1.59c-.91.35-2.08.52-3.51.52-.55 0-1.15-.04-1.8-.13-.65-.08-1.16-.18-1.53-.3-.43-.12-.62-.3-.57-.55l.44-2.07c.03-.16.12-.29.28-.41.15-.12.32-.17.5-.17h.06c.28.01.88.05 1.78.11s1.51.09 1.82.09c.47 0 .88-.06 1.23-.17.35-.12.66-.32.94-.62.28-.3.56-.73.83-1.29l.46-.96h-.47c-.37 0-.71-.06-1.02-.17-.31-.12-.58-.37-.81-.77s-.37-.98-.43-1.74l-1.07-14.8a.432.432 0 0 1 .02-.22c.07-.35.32-.52.73-.52h3.27c.15 0 .27.06.36.17.09.12.13.25.13.41l.47 13.15c0 .47.09.71.28.71h.3l6.44-13.89c.16-.37.42-.55.77-.55h3.3c.15 0 .27.05.36.17.08.09.11.22.08.37z" class="st3"></path></g><g clip-rule="evenodd" fill-rule="evenodd"><path fill="#085CA8" d="m190.28 194.467-16.9-24.23-1.72-1.58h16.66l11.29 18.32.91-.74 6.82-10.14c1.68-2.49 1.45-5.39-.94-7.43h15.74l-18.19 25.8-.01 18.72 3.21 3.81h-19.56l2.76-3.76c-.01-6.23-.24-12.54-.07-18.77zm-45.89-25.8c1.35 1.85 1.75 2.5 1.9 4.15.11 1.15.03 1.8-.34 2.87l-12.57 36.45c-.59 1.5-1.8 3.15-3.57 4.76h13.72c-1.02-.9-1.67-1.98-1.91-3.26-.22-1.17-.21-1.61.05-2.73l2.79-8.66h15.96l2.49 6.67c.26.7.41 1.35.47 2.1.22 2.49-.58 4.54-2.56 5.99h21.5c-2.11-1.88-4.05-3.85-5.14-6.23l-15.7-42.11h-17.09zm13.68 27.3h-11.42l5.54-15.78 5.88 15.78zm-57.17-27.26 10.81-.04H124.83c7.22 0 13.12 5.9 13.12 13.12v1.62c0 7.22-5.91 12.72-13.12 12.94l-5.98.18c4.81-2.21 6.82-7.8 6.22-12.84-.48-4.04-2.56-7.93-6.03-8l-2.19-.05v35.97c0 .7.12.99.49 1.61.59.98 1.37 1.96 2.18 2.93.21.25.42.51.63.76h-18.61c.28-.34.55-.69.81-1.04.56-.77 1.06-1.58 1.44-2.49.24-.58.36-1.02.36-1.64v-38.64c-.07-2.01-2.07-3.16-3.25-4.39z" class="st4"></path><path fill="#EB2227" d="M0 168.447h15.02l12.61 36.16 10.69-29.95c.2-1.16.03-1.54-.42-2.54-.59-1.22-1.22-2.4-1.82-3.61H47.3c-.67 2.44-1.65 5.13-2.49 7.59l-14.49 42.11c-3.96-.79-8.36-2.35-11.78-5.59-2.57-2.43-3.48-5.2-4.75-8.49l-12.12-32.09c-.46-1.27-1.04-2.4-1.67-3.59zm59.98 16.95v25.84c0 1.05.24 1.24.89 2.08l2.96 3.86H49.69l2.39-3.65c.61-1 .88-1.34.88-2.51v-36.09l-3.98-6.46h14.66l23.73 30.56v-24.36c0-1.16-.23-1.54-.85-2.54-.8-1.22-1.63-2.4-2.42-3.61h14.13l-2.95 3.86c-.65.84-.89 1.03-.89 2.08v43.96c-5.35-.7-10.33-2.01-14.77-7.68l-19.64-25.34z" class="st5"></path></g><path fill="#EB2227" clip-rule="evenodd" fill-rule="evenodd" d="M221.05 180.357c0-1.04.15-2.07.43-3.06.3-.98.71-1.93 1.27-2.86 1.04-1.77 2.55-3.18 4.5-4.22 1.97-1.04 4.23-1.55 6.85-1.55 1.06 0 2.07.12 2.98.38.93.26 1.84.66 2.76 1.19 1.72.99 3.08 2.4 4.07 4.22.51.96.91 1.95 1.19 2.98.26 1.04.4 2.17.4 3.37 0 1.65-.36 3.36-1.09 5.11-.73 1.74-1.77 3.22-3.13 4.42l1.69 1.62c.68.64 1.39 1.24 2.15 1.8s1.6 1.04 2.53 1.46c.93.43 1.9.68 2.89.76-.88.73-1.82 1.29-2.79 1.69-.99.4-2.02.58-3.09.58-.91 0-1.84-.18-2.76-.58-.94-.38-1.82-.86-2.65-1.42-.88-.6-1.67-1.21-2.38-1.79l-1.89-1.59c-.13 0-.3 0-.51.02-.21.02-.46.05-.76.1l-1.12.1c-2.17 0-4.13-.58-5.9-1.7-1.77-1.12-3.16-2.66-4.13-4.6-.48-.96-.86-1.97-1.11-3.04-.26-1.11-.4-2.22-.4-3.39zm6.7.07c0 .74.08 1.52.26 2.32.13.56.33 1.27.63 2.13.46 1.36 1.14 2.48 2.03 3.34.88.88 1.97 1.31 3.26 1.31 1.67 0 2.91-.66 3.7-1.98.79-1.32 1.21-3.01 1.21-5.08 0-.53-.07-1.39-.17-2.55-.12-.86-.28-1.65-.48-2.36-.2-.74-.43-1.39-.69-1.95-.5-1.12-1.16-1.97-2.02-2.53-.84-.58-1.85-.86-2.99-.86-.53 0-1.03.1-1.49.3-.45.18-.88.46-1.26.83-.69.66-1.21 1.52-1.52 2.56-.31 1.04-.48 2.18-.48 3.41v.63c0 .2.01.34.01.48zm26.55.24a4.89 4.89 0 0 0 1.97-.76c.58-.4 1.03-.93 1.36-1.57.17-.31.28-.63.38-.96.08-.33.12-.68.12-1.03 0-1.07-.28-1.97-.88-2.7-.58-.71-1.47-1.07-2.66-1.07h-.28v8.09h-.01zm0 1.87v6.57c0 1.64.51 2.75 1.52 3.32v.15h-9.53v-.15c.96-.55 1.46-1.64 1.46-3.27V173.077c0-.98-.1-1.75-.26-2.3-.18-.56-.58-1.06-1.19-1.49v-.07h11.56c1.29 0 2.45.23 3.47.71 1.03.48 1.84 1.17 2.43 2.13.31.46.53.99.68 1.57.17.56.25 1.19.25 1.84 0 .88-.28 1.82-.86 2.86-.56 1.03-1.65 1.95-3.29 2.75l4.58 7.72c1.09 1.67 2.08 2.86 2.98 3.57l-4.02.3-1.01.03h-.94c-.91 0-1.62-.15-2.15-.46-.51-.3-1.01-.89-1.46-1.77l-4.22-7.93z" class="st5"></path></svg>