<svg width="32" height="32" viewBox="0 0 32 32" fill="none" xmlns="http://www.w3.org/2000/svg"><path d="M16 32C24.8366 32 32 24.8366 32 16C32 7.16344 24.8366 0 16 0C7.16344 0 0 7.16344 0 16C0 24.8366 7.16344 32 16 32Z" fill="#EE0033"></path><path d="M14.2558 5.97546H12.0931C11.545 5.97546 11.0193 6.19319 10.6318 6.58075C10.2442 6.96831 10.0265 7.49395 10.0265 8.04205V23.9619C10.0265 24.2333 10.0799 24.502 10.1838 24.7528C10.2877 25.0035 10.4399 25.2313 10.6318 25.4232C10.8237 25.6151 11.0515 25.7674 11.3022 25.8712C11.553 25.9751 11.8217 26.0285 12.0931 26.0285H14.2558C14.3236 26.0285 14.3908 26.0152 14.4535 25.9892C14.5162 25.9632 14.5731 25.9252 14.6211 25.8772C14.6691 25.8292 14.7071 25.7723 14.7331 25.7096C14.7591 25.6469 14.7724 25.5797 14.7724 25.5119V23.9659C14.7724 23.8289 14.718 23.6975 14.6211 23.6006C14.5242 23.5037 14.3928 23.4493 14.2558 23.4493H10.8986V8.55168H14.2558C14.3926 8.55062 14.5235 8.49531 14.6196 8.39789C14.7157 8.30046 14.7692 8.16888 14.7684 8.03203V6.49211C14.7684 6.35578 14.7145 6.22497 14.6185 6.12819C14.5225 6.03142 14.3921 5.97652 14.2558 5.97546Z" fill="white"></path><path d="M19.9069 5.97547H17.7442C17.6073 5.97573 17.4762 6.03028 17.3795 6.12714C17.2828 6.224 17.2285 6.35526 17.2285 6.49211V8.03204C17.2285 8.16889 17.2828 8.30015 17.3795 8.39701C17.4762 8.49387 17.6073 8.54842 17.7442 8.54869H21.1024V23.4513H17.7442C17.6073 23.4516 17.4762 23.5061 17.3795 23.603C17.2828 23.6999 17.2285 23.8311 17.2285 23.968V25.5109C17.2285 25.6477 17.2828 25.779 17.3795 25.8759C17.4762 25.9727 17.6073 26.0273 17.7442 26.0275H19.9069C20.1788 26.0281 20.4481 25.9749 20.6994 25.8712C20.9507 25.7674 21.1791 25.6151 21.3715 25.423C21.5638 25.2308 21.7163 25.0026 21.8203 24.7513C21.9243 24.5001 21.9777 24.2308 21.9775 23.959V8.04205C21.9775 7.77033 21.9239 7.50127 21.8198 7.25028C21.7157 6.99929 21.5631 6.77129 21.3707 6.57934C21.1784 6.38739 20.9501 6.23525 20.6989 6.13163C20.4477 6.02801 20.1786 5.97494 19.9069 5.97547V5.97547Z" fill="white"></path></svg>