<svg width="32" height="32" viewBox="0 0 32 32" fill="none" xmlns="http://www.w3.org/2000/svg"><mask id="mask0_1329:61134" style="mask-type:alpha" maskUnits="userSpaceOnUse" x="0" y="6" width="32" height="20"><rect y="6" width="32" height="20" rx="1.81818" fill="white"></rect></mask><g mask="url(#mask0_1329:61134)"><rect opacity="0.01" x="-1" y="4" width="34.04" height="23" fill="white"></rect><path fill-rule="evenodd" clip-rule="evenodd" d="M9.8116 10.6916L7.26655 17.2114L6.23703 11.6676C6.11637 11.0489 5.63944 10.6916 5.10955 10.6916H0.949103L0.891235 10.9696C1.74526 11.1578 2.7154 11.4606 3.30354 11.7849C3.66323 11.9827 3.76572 12.156 3.88411 12.6263L5.83384 20.2704H8.41786L12.3794 10.6916H9.8116ZM13.4285 10.6916L11.4062 20.2704H13.8514L15.8726 10.6916H13.4285ZM27.4466 13.2791L28.1868 16.8763H26.1588L27.4466 13.2791ZM27.0873 10.6916C26.6187 10.6916 26.2234 10.9688 26.0472 11.3943L22.3792 20.2704H24.945L25.4556 18.8405H28.5911L28.8876 20.2704H31.149L29.1754 10.6916H27.0873ZM16.5398 13.6828C16.5224 15.062 17.7528 15.8321 18.6794 16.2895C19.6318 16.7594 19.9514 17.0603 19.948 17.4805C19.9408 18.1229 19.1881 18.4066 18.4842 18.4177C17.2558 18.4373 16.5417 18.0815 15.9736 17.8128L15.5311 19.9112C16.1007 20.1776 17.1555 20.4095 18.2497 20.4199C20.8175 20.4199 22.4972 19.1353 22.5063 17.1431C22.5165 14.6154 19.0565 14.4755 19.0799 13.3455C19.0883 13.0031 19.4109 12.6374 20.1178 12.5447C20.4676 12.4975 21.4332 12.4615 22.5282 12.9725L22.9579 10.9423C22.3693 10.725 21.6125 10.5168 20.67 10.5168C18.2531 10.5168 16.5534 11.8186 16.5398 13.6828Z" fill="#1A1F71"></path></g></svg>