<svg width="32" height="33" viewBox="0 0 32 33" fill="none" xmlns="http://www.w3.org/2000/svg"><path d="M28.8002 3.8665H3.2002V29.4665H28.8002V3.8665Z" fill="#1093D5"></path><path d="M10.7408 9.09659C10.1417 9.09595 9.7155 9.32635 9.45246 9.84603C9.0851 9.29691 8.77534 9.09339 8.12766 9.09211C7.54846 9.09147 7.1235 9.25595 6.81054 9.77115V9.58619C6.8099 9.31163 6.58718 9.08955 6.31326 9.08891L5.5523 9.08763L5.5459 13.4607C5.54654 13.7353 5.76862 13.958 6.04254 13.9574L6.80286 13.9587L6.80862 10.8739C6.81246 10.454 7.15486 10.1167 7.57342 10.1199C7.99262 10.1238 8.3299 10.4668 8.32606 10.886L8.32222 13.4646C8.32222 13.7391 8.5443 13.9612 8.81822 13.9612L9.57982 13.9625L9.5843 10.9014C9.5907 10.4732 9.94142 10.1315 10.3689 10.1379C10.7888 10.1436 11.1273 10.4835 11.1318 10.9039L11.128 13.4691C11.1286 13.7436 11.3513 13.9663 11.6253 13.9657L12.3593 13.967L12.3645 10.6787C12.3664 9.79227 11.6995 9.09787 10.7408 9.09659Z" fill="white"></path><path d="M21.3498 9.39355C20.9332 9.21563 20.4865 9.11963 20.0333 9.11003C17.9668 9.10683 17.5898 10.2006 17.5879 11.5388C17.586 12.8783 17.9591 13.9721 20.0263 13.9753C20.5012 13.9689 20.9735 13.9075 21.4343 13.7923C21.4849 13.7891 21.5246 13.7487 21.5284 13.6982C21.5284 13.6611 21.4356 12.9507 21.4356 12.9507C21.4337 12.9007 21.394 12.8598 21.3434 12.8579C20.914 12.9724 20.4717 13.0345 20.0276 13.0428C18.9466 13.0409 18.713 12.3945 18.7143 11.5414C18.7156 10.6915 18.8583 10.0451 20.0327 10.047C20.6887 10.0483 21.3946 10.3305 21.4407 10.3305C21.49 10.3337 21.5316 10.2959 21.5348 10.2467C21.5348 10.2428 21.5348 10.239 21.5348 10.2351C21.5348 10.1974 21.442 9.48571 21.442 9.48571C21.4273 9.44219 21.3934 9.40827 21.3498 9.39355Z" fill="white"></path><path d="M25.9574 9.11963L25.3763 9.11899L25.3756 9.54203C25.0723 9.25019 24.5897 9.11771 24.1513 9.11707C22.7427 9.11515 21.8019 9.86203 21.7993 11.5459C21.7968 13.2304 22.735 13.9804 24.1436 13.9824C24.8323 13.9836 25.2105 13.7174 25.3724 13.558C25.4064 13.8051 25.6169 13.9888 25.8659 13.9888L26.4476 13.9894L26.454 9.61115C26.4515 9.33851 26.23 9.11899 25.9574 9.11963ZM24.1443 13.0492C23.2067 13.0473 22.9238 12.4841 22.9251 11.5478C22.9264 10.6108 23.2112 10.0515 24.1488 10.0527C25.0864 10.054 25.3699 10.6166 25.3686 11.551C25.3673 12.486 25.0838 13.0505 24.1443 13.0492Z" fill="white"></path><path d="M14.9807 9.10299C13.5714 9.10107 12.63 9.84731 12.6274 11.5318C12.6249 13.2163 13.5638 13.967 14.973 13.9689C16.3823 13.9708 17.3199 13.2246 17.3225 11.5388C17.325 9.85307 16.3887 9.10491 14.9807 9.10299ZM14.975 13.0352C14.0335 13.0339 13.7545 12.4707 13.7558 11.5337C13.757 10.5974 14.0374 10.0374 14.9794 10.0387C15.917 10.0399 16.1986 10.6025 16.1967 11.5369C16.1954 12.472 15.9132 13.0364 14.975 13.0352Z" fill="white"></path><path d="M28.8002 29.4665H3.2002V18.1539H28.8002V29.4665Z" fill="#00B14F"></path><path d="M8.55931 23.7417C8.55931 24.9103 9.44123 25.8057 10.5804 25.8057C11.6774 25.8057 12.2291 25.0959 12.2291 24.3145V24.0348H10.6303V24.4649H11.7913C11.7983 24.8879 11.4111 25.3827 10.5798 25.3827C9.66202 25.3827 9.02459 24.7017 9.02459 23.7411C9.02459 22.8163 9.71259 22.1212 10.6591 22.1212C11.2755 22.1212 11.7631 22.2716 12.2143 22.5871L12.2431 22.5654V22.1641C11.9065 21.9273 11.3331 21.6982 10.6444 21.6982C9.47707 21.6988 8.55931 22.6025 8.55931 23.7417ZM7.89307 23.7417C7.89307 25.2899 9.03995 26.4438 10.5811 26.4438C11.9859 26.4438 12.846 25.5619 12.846 24.1359V23.4051H10.631V23.8211H12.4441V24.2083C12.4441 25.3263 11.7491 26.0214 10.5804 26.0214C9.29723 26.0214 8.34427 25.0396 8.34427 23.7423C8.34427 22.4809 9.34779 21.4844 10.6451 21.4844C11.2614 21.4844 11.8207 21.6348 12.2438 21.9286V21.5055C11.8355 21.2118 11.2979 21.0614 10.6451 21.0614C9.08987 21.0614 7.89307 22.2441 7.89307 23.7417ZM13.7561 24.1071V26.3222H14.1791V24.1148C14.1791 23.6201 14.5017 23.2687 14.9817 23.2687C15.1251 23.2687 15.2543 23.3046 15.39 23.3622C15.4476 23.2259 15.5046 23.1113 15.5763 23.0038C15.4259 22.9033 15.2038 22.8387 14.9887 22.8387C14.2649 22.8387 13.7561 23.3622 13.7561 24.1071ZM13.1321 26.3222H13.5551V24.1071C13.5551 23.2329 14.1427 22.6377 14.9958 22.6377C15.2825 22.6377 15.5763 22.7311 15.7055 22.8099C15.7843 22.7164 15.8707 22.6166 15.9852 22.5231C15.7203 22.3369 15.3619 22.2294 14.9747 22.2294C13.8495 22.2294 13.1327 22.9891 13.1327 24.1142V26.3222H13.1321ZM19.7625 23.8422V24.4655C20.0134 24.1289 20.2284 23.8345 20.4294 23.5913C20.9382 22.9679 21.383 22.6236 22.071 22.6236C23.0028 22.6236 23.6838 23.3263 23.6838 24.3151C23.6838 25.2828 23.0169 26.0214 22.0998 26.0214C21.3542 26.0214 20.7091 25.5126 20.5587 24.8169L20.2579 25.2252C20.4947 25.9062 21.1897 26.4438 22.0927 26.4438C23.2537 26.4438 24.1068 25.5119 24.1068 24.3151C24.1068 23.1036 23.2467 22.1935 22.071 22.1935C20.8518 22.1935 20.2931 23.1043 19.7625 23.8422ZM21.0745 24.1577H21.0604L20.7308 24.6095C20.7884 25.1254 21.3113 25.814 22.0998 25.814C22.9023 25.814 23.4835 25.1619 23.4835 24.3087C23.4835 23.4556 22.8883 22.8252 22.0716 22.8252C21.2761 22.8252 20.8172 23.4057 20.4947 23.8358C20.3372 24.0438 20.0646 24.3804 19.7638 24.8035V25.4915C20.0435 25.0755 20.423 24.5884 20.7027 24.2511C21.1756 23.6847 21.4623 23.2547 22.0646 23.2547C22.6521 23.2547 23.054 23.7065 23.054 24.3081C23.054 24.9315 22.6739 25.3903 22.1004 25.3903C21.4982 25.3903 21.0751 24.8387 21.0751 24.2217V24.1577H21.0745ZM20.6515 20.6883V22.4732C20.7807 22.3727 20.9241 22.2511 21.0745 22.1935V20.6883H20.6515ZM20.0204 23.1254C20.1497 22.9603 20.2931 22.7811 20.4435 22.6307V20.6883H20.0204V23.1254ZM18.3001 25.1683L18.2931 25.1612C18.1139 25.3046 17.8201 25.3903 17.5404 25.3903C16.967 25.3903 16.5369 24.9603 16.5369 24.3222C16.5369 23.7129 16.9599 23.247 17.5263 23.247C18.1356 23.247 18.5081 23.6911 18.5081 24.2863V26.3222H18.9311V24.2652C18.9311 23.4339 18.3507 22.8246 17.5334 22.8246C16.7231 22.8246 16.0998 23.4339 16.0998 24.3228C16.0998 25.2047 16.7161 25.8351 17.5334 25.814C17.8419 25.807 18.1567 25.6924 18.3001 25.5919V25.1683ZM15.4617 24.3151C15.4617 25.5625 16.3436 26.4438 17.5334 26.4438C17.7983 26.4438 18.1068 26.3651 18.3001 26.2147V25.7916C18.1708 25.8991 17.8559 26.0207 17.5334 26.0207C16.5587 26.0207 15.8988 25.3327 15.8988 24.3145C15.8988 23.3468 16.6015 22.623 17.5334 22.623C18.4582 22.623 19.1321 23.3039 19.1321 24.2575V26.3215H19.5622V24.2505C19.5622 23.0607 18.7238 22.1865 17.534 22.1865C16.3647 22.1865 15.4617 23.1113 15.4617 24.3151Z" fill="white"></path></svg>