<svg width="32" height="33" viewBox="0 0 32 33" fill="none" xmlns="http://www.w3.org/2000/svg"><path fill-rule="evenodd" clip-rule="evenodd" d="M30 10.3615C30 8.8731 28.7934 7.6665 27.305 7.6665H4.695C3.20659 7.6665 2 8.8731 2 10.3615V22.9715C2 24.4599 3.20659 25.6665 4.695 25.6665H27.305C28.7934 25.6665 30 24.4599 30 22.9715V10.3615ZM4.695 8.6665H27.305L27.4513 8.67273C28.3189 8.74688 29 9.47465 29 10.3615V22.9715L28.9938 23.1178C28.9196 23.9854 28.1919 24.6665 27.305 24.6665H4.695L4.54875 24.6603C3.6811 24.5861 3 23.8584 3 22.9715V10.3615L3.00622 10.2153C3.08037 9.3476 3.80815 8.6665 4.695 8.6665Z" fill="#052E5C"></path><path fill-rule="evenodd" clip-rule="evenodd" d="M8.67528 20.2746L8.14557 21.881H7L9.205 15.6665H10.4582L12.6632 21.881H11.4918L10.9621 20.2746H8.67528ZM8.93368 19.4176H10.6994L9.83377 16.7647H9.80362L8.93368 19.4176ZM15.9535 21.881V16.6054H17.8097V15.6665H12.9862V16.6054H14.8467V21.881H15.9535ZM19.5711 17.471V21.881H18.5676V15.6665H19.8553L21.7589 20.4081H21.7933L23.6968 15.6665H24.9802V21.881H23.9811V17.471H23.9509L22.1551 21.881H21.3971L19.6012 17.471H19.5711Z" fill="#052E5C"></path><rect x="22" y="10.6665" width="5" height="3" rx="1" fill="#0B74E5"></rect></svg>