
<svg xmlns="http://www.w3.org/2000/svg" width="113" height="28" viewBox="0 0 113 28">
    <defs>
        <linearGradient id="prefix__a" x1="0%" x2="98.078%" y1="47.804%" y2="52.196%">
            <stop offset="0%" stop-color="#FF821D"/>
            <stop offset="100%" stop-color="#FF5B18"/>
        </linearGradient>
    </defs>
    <g fill="none" fill-rule="evenodd">
        <path fill="url(#prefix__a)" d="M99.83 8.766l.547 8.079 4.524-8.079h4.971l-8.327 13.374c-1.939 3.032-3.704 4.126-6.339 4.126-1.566 0-2.66-.373-3.58-.97l2.114-3.455c.621.448 1.268.671 1.864.671.448 0 .77-.1 1.168-.497l-1.74-13.249h4.798zm-72.436-.298c4.127 0 6.613 2.71 6.613 6.239 0 4.077-3.406 7.83-7.93 7.83-4.102 0-6.587-2.71-6.587-6.264 0-4.052 3.405-7.805 7.904-7.805zm60.952.124c4.027 0 5.99 1.59 5.99 4.276 0 .517-.069 1.053-.192 1.605l-.081.333-1.989 7.408h-4.648l.373-1.442c-1.144 1.07-2.312 1.716-3.878 1.716-2.212 0-3.754-1.417-3.754-3.655 0-2.958 2.362-4.747 5.917-4.747 1.065 0 2.055.152 3.002.406l.403.116.05-.174c.05-.224.124-.498.124-.82 0-.87-.671-1.442-2.312-1.442-1.162 0-2.45.25-3.383.58l-.246.09-.671-3.43c1.417-.497 3.356-.82 5.295-.82zM10.392 4.814l-1.765 6.512h6.14l1.74-6.512h4.847l-4.673 17.4h-4.848l1.79-6.612h-6.14l-1.765 6.612H.871l4.673-17.4h4.848zm42.656 3.654c2.56 0 3.977 1.54 3.977 4.002 0 .72-.174 1.59-.398 2.436l-1.964 7.308h-4.698l1.865-7.035c.099-.348.174-.795.174-1.093 0-.895-.448-1.417-1.442-1.417-1.268 0-2.039.895-2.461 2.436l-1.914 7.11h-4.723l1.89-7.036c.098-.348.173-.795.173-1.093 0-.895-.472-1.417-1.442-1.417-1.267 0-2.038.895-2.46 2.436l-1.915 7.11h-4.723l3.605-13.449h4.723l-.398 1.491c.92-.944 2.163-1.79 3.754-1.79 1.839 0 3.007.945 3.504 2.337 1.268-1.441 2.909-2.336 4.873-2.336zm17.798-3.654l4.499 9.67 2.61-9.67h4.798l-4.674 17.4h-4.225l-4.699-10.018-2.684 10.018h-4.798l4.673-17.4h4.5zm16.381 11.583c-1.491 0-2.46.721-2.46 1.94 0 .77.546 1.242 1.341 1.242 1.166 0 2.285-.978 2.707-2.26l.053-.176.124-.447c-.522-.174-1.119-.299-1.765-.299zm-60.081-4.002c-1.865 0-3.132 1.964-3.132 3.704 0 1.541.944 2.51 2.336 2.51 1.865 0 3.132-1.963 3.132-3.728 0-1.516-.944-2.486-2.336-2.486zm4.524-8.973l2.088 4.076h-2.809l-1.69-1.516-2.486 1.516h-3.207l4.276-4.076h3.828z" transform="translate(.889)"/>
        <path d="M0 0H112V28H0z" transform="translate(.889)"/>
    </g>
</svg>
