<svg width="32" height="33" viewBox="0 0 32 33" fill="none" xmlns="http://www.w3.org/2000/svg"><path d="M0 16.6665C0 7.82995 7.16344 0.666504 16 0.666504C24.8366 0.666504 32 7.82995 32 16.6665C32 25.5031 24.8366 32.6665 16 32.6665C7.16344 32.6665 0 25.5031 0 16.6665Z" fill="#FF0000"></path><path d="M24.1768 12.7153C23.9805 11.9613 23.4022 11.3675 22.6679 11.166C21.3371 10.7998 16.0001 10.7998 16.0001 10.7998C16.0001 10.7998 10.6632 10.7998 9.3323 11.166C8.59795 11.3675 8.01962 11.9613 7.82335 12.7153C7.4668 14.0818 7.4668 16.9331 7.4668 16.9331C7.4668 16.9331 7.4668 19.7843 7.82335 21.151C8.01962 21.905 8.59795 22.4987 9.3323 22.7003C10.6632 23.0665 16.0001 23.0665 16.0001 23.0665C16.0001 23.0665 21.3371 23.0665 22.6679 22.7003C23.4022 22.4987 23.9805 21.905 24.1768 21.151C24.5335 19.7843 24.5335 16.9331 24.5335 16.9331C24.5335 16.9331 24.5335 14.0818 24.1768 12.7153Z" fill="white"></path><path d="M14.3999 19.8665V14.5332L18.6666 17.2L14.3999 19.8665Z" fill="#FF0000"></path></svg>